<?xml version="1.0" standalone="no"?>
<!DOCTYPE svg PUBLIC "-//W3C//DTD SVG 20010904//EN"
 "http://www.w3.org/TR/2001/REC-SVG-20010904/DTD/svg10.dtd">
<svg version="1.0" xmlns="http://www.w3.org/2000/svg"
 width="948.000000pt" height="948.000000pt" viewBox="0 0 948.000000 948.000000"
 preserveAspectRatio="xMidYMid meet">
<metadata>
Created by potrace 1.14, written by Peter Selinger 2001-2017
</metadata>
<g transform="translate(0.000000,948.000000) scale(0.100000,-0.100000)"
fill="#000000" stroke="none">
<path d="M1546 9459 c-199 -49 -361 -183 -452 -374 -69 -145 -64 220 -64
-4348 0 -4105 0 -4133 20 -4216 49 -204 184 -368 375 -456 151 -70 -123 -65
3319 -65 3432 0 3177 -5 3321 64 194 92 326 254 375 457 20 83 20 112 20 3531
l0 3447 -722 3 -723 3 -82 31 c-116 44 -185 88 -266 174 -75 79 -120 151 -158
260 l-24 65 -5 720 -5 720 -2425 2 c-2366 2 -2427 1 -2504 -18z m3379 -3730
c123 -21 286 -88 393 -161 139 -96 287 -277 351 -432 63 -151 75 -214 75 -396
0 -182 -12 -245 -75 -396 -64 -154 -212 -336 -351 -432 -102 -70 -244 -130
-373 -158 -92 -20 -308 -20 -400 0 -383 82 -671 358 -777 744 -33 117 -32 363
1 487 95 360 374 638 733 731 114 30 290 35 423 13z"/>
</g>
</svg>
